<?xml version="1.0" encoding="UTF-8"?>
<svg id="Layer_1" data-name="Layer 1" xmlns="http://www.w3.org/2000/svg" xmlns:xlink="http://www.w3.org/1999/xlink" viewBox="0 0 333.7908 334.3398">
  <a xlink:href="100">
    <rect id="fullLogo" x="165.6383" y="98.8615" width="0" height="0" style="opacity: .47;"/>
  </a>
  <a xlink:href="100">
    <polygon id="fullLogo-2" data-name="fullLogo" points="165.6383 98.8615 165.6383 98.8615 165.6383 98.8615 165.6383 98.8615" style="opacity: .47;"/>
  </a>
  <a xlink:href="100">
    <polygon id="fullLogo-3" data-name="fullLogo" points="165.6383 98.8615 165.6383 98.8615 165.6383 98.8615 165.6383 98.8615" style="opacity: .47;"/>
  </a>
  <a xlink:href="23.2890196078431">
    <path id="fullLogo-4" data-name="fullLogo" d="M104.8306,78.7327l23.2522,5.2271c2.3857-6.1115,6.2091-11.5772,11.1245-15.9171l-18.6965-29.54-32.1935,5.5783,5.5783,32.1935,10.9349,2.4582Z" style="fill: #fdbe4a;"/>
  </a>
  <a xlink:href="34.1843137254902">
    <path id="fullLogo-5" data-name="fullLogo" d="M206.8516,91.9168c.5712,3.3301,.7152,6.6334,.4881,9.8599l34.2809,7.7064,18.8198-26.7087-26.7095-18.8202-29.6064,18.7387c1.2385,2.8988,2.1709,5.9811,2.7271,9.2239Z" style="fill: #fd913e;"/>
  </a>
  <a xlink:href="34.1843137254902">
    <path id="fullLogo-6" data-name="fullLogo" d="M159.4204,58.375c3.274-.5616,6.5216-.7081,9.6963-.4975l5.198-23.1224,2.4582-10.9349-26.7091-18.8202-18.8198,26.7095,18.6766,29.5083c2.978-1.2982,6.1545-2.2689,9.4998-2.8428Z" style="fill: #fd913e;"/>
  </a>
  <a xlink:href="23.2890196078431">
    <path id="fullLogo-7" data-name="fullLogo" d="M197.386,71.925l29.5518-18.704-5.5783-32.1935-32.1935,5.5783-2.4582,10.9349-5.2,23.1318c6.1074,2.4284,11.5638,6.2933,15.8783,11.2524Z" style="fill: #fdbe4a;"/>
  </a>
  <a xlink:href="23.2890196078431">
    <path id="fullLogo-8" data-name="fullLogo" d="M204.49,114.1554c-2.4236,6.0249-6.2454,11.4103-11.1389,15.6818l18.8679,29.8111,32.1939-5.5783-5.5783-32.1939-34.3445-7.7207Z" style="fill: #fdbe4a;"/>
  </a>
  <a xlink:href="23.2890196078431">
    <path id="fullLogo-9" data-name="fullLogo" d="M135.5916,126.0689l-29.7995,18.8606,5.5783,32.1944,32.1939-5.5787,7.746-34.4576c-6.0294-2.3812-11.422-6.1681-15.7187-11.0186Z" style="fill: #fdbe4a;"/>
  </a>
  <a xlink:href="34.1843137254902">
    <path id="fullLogo-10" data-name="fullLogo" d="M173.3098,139.348c-3.2414,.556-6.4568,.7042-9.6013,.5029l-7.7512,34.4803,26.7087,18.8193,18.8198-26.7091-18.8902-29.8465c-2.9166,1.2518-6.0199,2.1929-9.2857,2.753Z" style="fill: #fd913e;"/>
  </a>
  <a xlink:href="34.1843137254902">
    <path id="fullLogo-11" data-name="fullLogo" d="M125.8786,105.8062c-.5464-3.1852-.6978-6.3452-.5123-9.4378l-23.3214-5.2427-10.9349-2.4582-18.8202,26.7091,26.7091,18.8198,29.7484-18.8284c-1.3118-2.9957-2.2909-6.1934-2.8687-9.5617Z" style="fill: #fd913e;"/>
  </a>
  <path id="fullLogo-12" data-name="fullLogo" d="M5.3259,266.1846c.2939-.3521,.5874-.7632,.8809-1.1152,.5869-.7632,1.2324-1.2329,2.0542-.5283,.4111,.3521,4.6963,4.4614,9.9204,4.4614,4.7549,0,7.8662-2.9941,7.8662-6.4575,0-4.0503-3.522-6.457-10.2729-9.2744-6.457-2.8179-10.3311-5.459-10.3311-12.1509,0-3.9917,3.1699-10.4487,12.5034-10.4487,5.7524,0,10.0376,2.9937,10.0376,2.9937,.3521,.1763,1.0566,.8804,.3521,1.9956-.2349,.3525-.4697,.7632-.7041,1.1152-.5283,.8223-1.1157,1.0566-2.0547,.5283-.4111-.2344-4.1089-2.7002-7.6899-2.7002-6.2222,0-8.1006,3.9917-8.1006,6.457,0,3.9331,2.9937,6.2227,7.9248,8.2769,7.9243,3.2285,13.0312,6.2222,13.0312,13.0317,0,6.105-5.811,10.5659-12.6792,10.5659-6.9268,0-11.6226-4.0503-12.3857-4.7549-.4697-.4106-1.0566-.8804-.3525-1.9956Z" style="fill: #0a0445;"/>
  <path id="fullLogo-13" data-name="fullLogo" d="M35.4944,270.8218l17.8452-39.5054c.1758-.3521,.4697-.6455,.998-.6455h.5869c.5283,0,.8218,.2935,.9976,.6455l17.728,39.5054c.3516,.7632-.1172,1.5264-.998,1.5264h-2.3477c-.5283,0-.8809-.3521-.998-.6455l-4.3438-9.686h-20.8394l-4.2847,9.686c-.1177,.2935-.4697,.6455-.998,.6455h-2.3481c-.8804,0-1.3501-.7632-.998-1.5264Zm27.8833-12.4443c-2.877-6.3984-5.6943-12.8555-8.5708-19.2539h-.4692l-8.5703,19.2539h17.6104Z" style="fill: #0a0445;"/>
  <path id="fullLogo-14" data-name="fullLogo" d="M81.9216,231.7275c0-.5874,.5283-1.0566,1.1152-1.0566h1.4678l26.4736,32.9897h.1182v-31.2876c0-.5869,.4688-1.1152,1.1152-1.1152h2.0537c.5879,0,1.1152,.5283,1.1152,1.1152v39.5054c0,.5869-.5273,1.0566-1.1152,1.0566h-1.0566l-26.9434-33.6353h-.0586v31.9331c0,.5869-.4697,1.1152-1.1152,1.1152h-2.0547c-.5869,0-1.1152-.5283-1.1152-1.1152v-39.5054Z" style="fill: #0a0445;"/>
  <path id="fullLogo-15" data-name="fullLogo" d="M144.1355,232.373c0-.5869,.4697-1.1152,1.0566-1.1152h13.1494c11.3291,0,20.6035,9.2158,20.6035,20.4863,0,11.3882-9.2744,20.604-20.6035,20.604h-13.1494c-.5869,0-1.0566-.5283-1.0566-1.1152v-38.8599Zm13.2666,35.9248c9.627,0,16.6123-6.8682,16.6123-16.5537,0-9.627-6.9854-16.4946-16.6123-16.4946h-8.8057v33.0483h8.8057Z" style="fill: #0a0445;"/>
  <path id="fullLogo-16" data-name="fullLogo" d="M189.8581,232.373c0-.5869,.5283-1.1152,1.1152-1.1152h2.3486c.5869,0,1.1152,.5283,1.1152,1.1152v38.8599c0,.5869-.5283,1.1152-1.1152,1.1152h-2.3486c-.5869,0-1.1152-.5283-1.1152-1.1152v-38.8599Z" style="fill: #0a0445;"/>
  <path id="fullLogo-17" data-name="fullLogo" d="M208.2878,232.373c0-.5869,.4697-1.1152,1.1152-1.1152h23.1279c.6465,0,1.1152,.5283,1.1152,1.1152v1.7021c0,.5874-.4688,1.1157-1.1152,1.1157h-19.7227v14.3228h16.8467c.5869,0,1.1152,.5283,1.1152,1.1152v1.7021c0,.646-.5283,1.1157-1.1152,1.1157h-16.8467v14.9683h19.7227c.6465,0,1.1152,.5283,1.1152,1.1152v1.7026c0,.5869-.4688,1.1152-1.1152,1.1152h-23.1279c-.6455,0-1.1152-.5283-1.1152-1.1152v-38.8599Z" style="fill: #0a0445;"/>
  <path id="fullLogo-18" data-name="fullLogo" d="M262.9343,230.6709c5.9287,0,10.2139,2.0542,14.2061,5.459,.4688,.4697,.5283,1.1738,.0586,1.6436-.5283,.5283-1.1748,1.1152-1.6436,1.6436-.5283,.5869-.8809,.5283-1.5264-.0586-2.9941-2.6416-7.2207-4.5786-11.1533-4.5786-9.2744,0-16.3184,7.7485-16.3184,16.8472,0,9.0396,7.0439,16.9644,16.3184,16.9644,6.457,0,10.5664-2.4653,10.5664-2.4653v-8.2183h-6.751c-.6455,0-1.1152-.4697-1.1152-1.0566v-2.1719c0-.6455,.4697-1.1152,1.1152-1.1152h10.1553c.5869,0,1.0566,.5283,1.0566,1.1152v13.4424c0,.2935-.2344,.7632-.4697,.9395,0,0-5.9873,3.874-14.499,3.874-11.7402,0-21.1904-9.3335-21.1904-21.0732s9.4502-21.1909,21.1904-21.1909Z" style="fill: #0a0445;"/>
  <path id="fullLogo-19" data-name="fullLogo" d="M307.6589,230.6709c11.7402,0,21.1318,9.4507,21.1318,21.1909s-9.3916,21.0732-21.1318,21.0732-21.0732-9.3335-21.0732-21.0732,9.333-21.1909,21.0732-21.1909Zm0,38.1553c9.333,0,17.0234-7.6313,17.0234-16.9644s-7.6904-17.082-17.0234-17.082-16.9648,7.7485-16.9648,17.082,7.6309,16.9644,16.9648,16.9644Z" style="fill: #0a0445;"/>
  <path id="fullLogo-20" data-name="fullLogo" d="M6.9236,324.0459c.23-.2764,.4604-.5986,.6904-.874,.4604-.5986,.9668-.9668,1.6113-.415,.3223,.2764,3.6831,3.499,7.7803,3.499,3.7285,0,6.1685-2.3477,6.1685-5.0635,0-3.1768-2.7622-5.0645-8.0562-7.2744-5.064-2.209-8.1021-4.2812-8.1021-9.5293,0-3.1299,2.4858-8.1943,9.8052-8.1943,4.5117,0,7.8726,2.3477,7.8726,2.3477,.2759,.1387,.8286,.6904,.2759,1.5654-.1841,.2764-.3682,.5986-.5522,.875-.4146,.6445-.8745,.8281-1.6113,.4141-.3223-.1846-3.2227-2.1172-6.0308-2.1172-4.8799,0-6.353,3.1299-6.353,5.0635,0,3.084,2.3481,4.8799,6.2148,6.4912,6.2148,2.5322,10.2202,4.8799,10.2202,10.2197,0,4.7881-4.5576,8.2861-9.9438,8.2861-5.4321,0-9.1152-3.1758-9.7134-3.7285-.3687-.3223-.8286-.6904-.2764-1.5654Z" style="fill: #0a0445;"/>
  <path id="fullLogo-21" data-name="fullLogo" d="M30.5862,327.6826l13.9946-30.9814c.1382-.2764,.3682-.5068,.7827-.5068h.4604c.4141,0,.6445,.2305,.7827,.5068l13.9028,30.9814c.2759,.5986-.0923,1.1973-.7827,1.1973h-1.8418c-.4141,0-.6904-.2764-.7822-.5068l-3.4067-7.5957h-16.3428l-3.3604,7.5957c-.0923,.2305-.3687,.5068-.7827,.5068h-1.8418c-.6904,0-1.0586-.5986-.7822-1.1973Zm21.8667-9.7588c-2.2559-5.0186-4.4653-10.082-6.7212-15.1006h-.3682l-6.7212,15.1006h13.8105Z" style="fill: #0a0445;"/>
  <path id="fullLogo-22" data-name="fullLogo" d="M67.0002,297.5293c0-.46,.4141-.874,.8745-.874h1.8418c.46,0,.874,.4141,.874,.874v30.4756c0,.4609-.4141,.875-.874,.875h-1.8418c-.4604,0-.8745-.4141-.8745-.875v-30.4756Z" style="fill: #0a0445;"/>
  <path id="fullLogo-23" data-name="fullLogo" d="M81.4548,297.0234c0-.4609,.415-.8291,.875-.8291h1.1514l20.7617,25.8721h.0918v-24.5371c0-.46,.3682-.874,.875-.874h1.6113c.46,0,.875,.4141,.875,.874v30.9824c0,.46-.415,.8281-.875,.8281h-.8291l-21.1299-26.3779h-.0459v25.043c0,.4609-.3691,.875-.875,.875h-1.6113c-.46,0-.875-.4141-.875-.875v-30.9814Z" style="fill: #0a0445;"/>
  <path id="fullLogo-24" data-name="fullLogo" d="M123.1179,299.7393h-8.0098c-.5068,0-.875-.4141-.875-.875v-1.335c0-.46,.3682-.874,.875-.874h19.5186c.5068,0,.875,.4141,.875,.874v1.335c0,.4609-.3682,.875-.875,.875h-8.0098v28.2656c0,.4609-.4141,.875-.875,.875h-1.749c-.46,0-.875-.4141-.875-.875v-28.2656Z" style="fill: #0a0445;"/>
  <path id="fullLogo-25" data-name="fullLogo" d="M139.9675,324.0459c.2305-.2764,.46-.5986,.6904-.874,.4609-.5986,.9668-.9668,1.6113-.415,.3223,.2764,3.6826,3.499,7.7803,3.499,3.7285,0,6.1689-2.3477,6.1689-5.0635,0-3.1768-2.7627-5.0645-8.0566-7.2744-5.0635-2.209-8.1025-4.2812-8.1025-9.5293,0-3.1299,2.4863-8.1943,9.8057-8.1943,4.5117,0,7.8721,2.3477,7.8721,2.3477,.2764,.1387,.8291,.6904,.2764,1.5654-.1836,.2764-.3682,.5986-.5527,.875-.4141,.6445-.874,.8281-1.6104,.4141-.3223-.1846-3.2227-2.1172-6.0312-2.1172-4.8799,0-6.3525,3.1299-6.3525,5.0635,0,3.084,2.3477,4.8799,6.2148,6.4912,6.2148,2.5322,10.2197,4.8799,10.2197,10.2197,0,4.7881-4.5576,8.2861-9.9434,8.2861-5.4326,0-9.1152-3.1758-9.7139-3.7285-.3682-.3223-.8291-.6904-.2764-1.5654Z" style="fill: #0a0445;"/>
  <path id="fullLogo-26" data-name="fullLogo" d="M194.0124,296.1943c4.6494,0,8.0098,1.6113,11.1406,4.2812,.3682,.3682,.4141,.9209,.0459,1.2891l-1.2432,1.2432c-.3682,.46-.7363,.4141-1.1963-.0459-2.3945-2.0713-5.6631-3.4531-8.793-3.4531-7.2734,0-12.8438,6.123-12.8438,13.2588,0,7.0889,5.5703,13.2119,12.8438,13.2119,4.0049,0,6.3525-1.6113,8.793-3.4521,.46-.3691,.8281-.3223,1.1045-.1387l1.3809,1.2432c.3682,.2764,.2764,.9209-.0459,1.2432-3.1299,3.0381-7.0898,4.4648-11.1865,4.4648-9.207,0-16.6191-7.3193-16.6191-16.5264s7.4121-16.6191,16.6191-16.6191Z" style="fill: #0a0445;"/>
  <path id="fullLogo-27" data-name="fullLogo" d="M213.7615,297.5293c0-.46,.415-.874,.875-.874h1.7959c.5059,0,.874,.4141,.874,.874v13.4424h18.6904v-13.4424c0-.46,.3682-.874,.875-.874h1.7949c.4609,0,.875,.4141,.875,.874v30.4756c0,.4609-.4141,.875-.875,.875h-1.7949c-.5068,0-.875-.4141-.875-.875v-13.9482h-18.6904v13.9482c0,.4609-.3682,.875-.874,.875h-1.7959c-.46,0-.875-.4141-.875-.875v-30.4756Z" style="fill: #0a0445;"/>
  <path id="fullLogo-28" data-name="fullLogo" d="M264.5857,296.1943c9.207,0,16.5723,7.4121,16.5723,16.6191s-7.3652,16.5264-16.5723,16.5264-16.5273-7.3193-16.5273-16.5264,7.3203-16.6191,16.5273-16.6191Zm0,29.9238c7.3193,0,13.3496-5.9854,13.3496-13.3047s-6.0303-13.3965-13.3496-13.3965-13.3047,6.0771-13.3047,13.3965,5.9844,13.3047,13.3047,13.3047Z" style="fill: #0a0445;"/>
  <path id="fullLogo-29" data-name="fullLogo" d="M289.6746,297.5293c0-.46,.415-.874,.875-.874h1.8418c.46,0,.874,.4141,.874,.874v30.4756c0,.4609-.4141,.875-.874,.875h-1.8418c-.46,0-.875-.4141-.875-.875v-30.4756Z" style="fill: #0a0445;"/>
  <path id="fullLogo-30" data-name="fullLogo" d="M304.1296,297.5293c0-.46,.3682-.874,.875-.874h11.9229c5.5244,0,10.0361,4.3271,10.0361,9.8057,0,4.2344-2.8076,7.7793-6.8135,9.3906l6.3076,11.6934c.3223,.5986,0,1.335-.7832,1.335h-2.3477c-.4141,0-.6445-.2305-.7363-.4141l-6.123-12.2002h-8.793v11.7393c0,.4609-.4141,.875-.875,.875h-1.7949c-.5068,0-.875-.4141-.875-.875v-30.4756Zm12.5684,15.6982c3.5449,0,6.6289-2.9463,6.6289-6.7207,0-3.499-3.084-6.4912-6.6289-6.4912h-8.9316v13.2119h8.9316Z" style="fill: #0a0445;"/>
</svg>